<svg width="300" height="87" viewBox="0 0 364 87" fill="none" xmlns="http://www.w3.org/2000/svg">
<path d="M304.548 87H43.4694C19.5713 87 0 67.4351 0 43.5C0 31.5426 4.89283 20.6777 12.778 12.787C20.6429 4.89628 31.5203 0 43.4694 0H304.548C292.599 0 281.742 4.89628 273.857 12.787C265.972 20.6777 261.079 31.5426 261.079 43.5C261.079 67.4351 280.65 87 304.548 87Z" fill="#295DA4"/>
<path d="M363.93 43.5C363.93 55.4777 359.037 66.3426 351.172 74.2333C343.287 82.1037 332.409 87 320.46 87H318.802C294.884 87 275.333 67.4351 275.333 43.5C275.333 31.5426 280.226 20.6777 288.091 12.787C295.976 4.89628 306.853 0 318.802 0H320.46C344.379 0 363.93 19.5851 363.93 43.5Z" fill="#295DA4"/>
<path d="M42.5393 51.3908C42.5393 44.5725 42.6404 35.4678 42.7819 30.1669H42.4989C41.2049 39.3322 39.3853 54.1829 37.4039 65.4525H29.2559C27.7193 53.7176 25.8997 38.9276 24.6866 30.0455H24.3631C24.5855 35.2048 24.7674 44.0869 24.7674 51.6943V65.4322H15.8916V21.5276H30.0849C31.5406 30.6929 32.9761 41.7197 33.6231 47.8906H33.8252C34.6744 41.3555 36.3121 31.8057 37.97 21.5276H52.0217V65.4727H42.5191V51.3908H42.5393Z" fill="#F9FFFF" stroke="#0A3E6A" stroke-miterlimit="10"/>
<path d="M83.906 46.8385H70.6023V57.319H85.6448L84.4721 65.4727H60.7156V21.5276H84.5125V29.7825H70.6023V38.6241H83.906V46.8385Z" fill="#F9FFFF" stroke="#0A3E6A" stroke-miterlimit="10"/>
<path d="M98.5441 29.7825H89.8906V21.5276H117.226V29.7825H108.613V65.4525H98.5441V29.7825Z" fill="#F9FFFF" stroke="#0A3E6A" stroke-miterlimit="10"/>
<path d="M128.629 56.0646L127.133 65.4727H117.044L125.697 21.5276H139.87L148.645 65.4727H138.172L136.635 56.0646H128.629ZM135.301 47.5669C134.31 41.1532 133.34 34.0111 132.794 29.9646H132.47C132.046 34.1729 130.974 41.1532 129.923 47.5669H135.301Z" fill="#F9FFFF" stroke="#0A3E6A" stroke-miterlimit="10"/>
<path d="M154.124 21.5276H164.213V57.2583H178.143L177.213 65.4525H154.124V21.5276Z" fill="#F9FFFF" stroke="#0A3E6A" stroke-miterlimit="10"/>
<path d="M211.483 43.2169C211.483 59.322 207.096 66.3022 196.178 66.3022C186.008 66.3022 181.479 59.2208 181.479 42.9943C181.479 26.7678 186.494 20.7183 196.583 20.7183C206.672 20.7183 211.483 27.9211 211.483 43.2169ZM192.033 42.9943C192.033 53.839 193.004 58.3508 196.481 58.3508C200.141 58.3508 200.97 54.1424 200.97 42.9943C200.97 32.5543 200.101 28.6899 196.481 28.6899C192.862 28.6899 192.033 32.7566 192.033 42.9943Z" fill="#F9FFFF" stroke="#0A3E6A" stroke-miterlimit="10"/>
<path d="M219.005 65.4525V21.5276H230.044C236.716 42.2457 238.273 47.2229 238.718 49.226H238.9C238.455 43.7025 238.333 36.4592 238.333 29.6004V21.5276H247.25V65.4727H236.372C229.437 42.6302 228.143 38.1992 227.638 36.3176H227.436C227.78 41.5983 227.961 49.752 227.961 56.9346V65.4929H219.005V65.4525Z" fill="#F9FFFF" stroke="#0A3E6A" stroke-miterlimit="10"/>
<path d="M290.173 55.6192V55.3764C290.213 51.2489 291.972 48.3355 295.652 44.1878C298.462 40.991 299.109 40.1008 299.109 37.6527C299.109 35.8317 298.725 34.5571 296.926 34.5571C295.126 34.5571 294.56 36.0948 294.479 38.5227H290.234C290.274 34.6987 291.912 31.0366 297.047 31.0366C301.738 31.0366 303.618 33.768 303.618 37.7943C303.618 40.6673 302.89 42.2455 299.777 45.5434C297.512 47.951 295.794 50.1159 295.268 51.8155H304.245L303.658 55.5989H290.173V55.6192Z" fill="#F9FFFF" stroke="#0A3E6A" stroke-miterlimit="10"/>
<path d="M321.491 43.2571C321.491 52.6045 319.408 55.9429 314.374 55.9429C309.34 55.9429 307.298 52.4022 307.298 43.2571C307.298 33.4241 310.27 31.0366 314.475 31.0366C318.923 31.0366 321.471 33.7478 321.471 43.2571H321.491ZM311.726 43.0952C311.726 49.165 312.009 52.301 314.415 52.301C316.821 52.301 317.083 49.2864 317.083 43.1762C317.083 37.0659 316.74 34.7392 314.435 34.7392C312.271 34.7392 311.726 37.1266 311.726 43.1155V43.0952Z" fill="#F9FFFF" stroke="#0A3E6A" stroke-miterlimit="10"/>
<path d="M327.395 55.6193V36.3983C326.808 36.4793 325.454 36.4793 324.746 36.4388V33.1004C326.485 32.8779 328.102 32.0686 328.891 31.2593H331.823V55.6395H327.415L327.395 55.6193Z" fill="#F9FFFF" stroke="#0A3E6A" stroke-miterlimit="10"/>
<path d="M349.089 31.3401V34.7796C345.955 40.202 343.468 47.951 342.518 55.6192H337.868C338.96 47.6071 342.033 39.6759 344.681 35.1236H336.19V31.3401H349.089Z" fill="#F9FFFF" stroke="#0A3E6A" stroke-miterlimit="10"/>
</svg>
