<svg width="70" height="70" viewBox="0 0 70 70" fill="none" xmlns="http://www.w3.org/2000/svg">
<circle cx="35" cy="35" r="35" fill="#295DA4"/>
<path d="M16 25.4842L35 35L54 25.4842C53.9297 24.2714 53.3991 23.1314 52.517 22.2977C51.6349 21.464 50.468 20.9998 49.2553 21H20.7447C19.532 20.9998 18.3651 21.464 17.483 22.2977C16.6009 23.1314 16.0703 24.2714 16 25.4842Z" fill="white"/>
<path d="M54 31L35 40.1347L16 31V44.4326C16 45.644 16.5004 46.8057 17.3912 47.6622C18.282 48.5188 19.4902 49 20.75 49H49.25C50.5098 49 51.718 48.5188 52.6088 47.6622C53.4996 46.8057 54 45.644 54 44.4326V31Z" fill="white"/>
</svg>
