<svg width="70" height="70" viewBox="0 0 70 70" fill="none" xmlns="http://www.w3.org/2000/svg">
<circle cx="35" cy="35" r="35" fill="#295DA4"/>
<path d="M22.626 12.3126C22.8493 11.6993 23.307 11.1997 23.8986 10.9239C24.4901 10.648 25.1671 10.6185 25.7804 10.8417L30.7595 12.654C31.3068 12.8535 31.7656 13.2406 32.0543 13.7466C32.343 14.2526 32.4428 14.8446 32.3361 15.4173L30.3143 26.2967C30.2183 26.8149 29.9585 27.2886 29.573 27.6481C29.1876 28.0076 28.6969 28.2338 28.1733 28.2935L23.9427 28.7782C24.0685 32.4268 24.9286 36.0126 26.4715 39.3213C28.0144 42.6301 30.2084 45.5938 32.9225 48.0355L36.0155 45.1071C36.3976 44.7447 36.8858 44.5144 37.4084 44.4501C37.9311 44.3857 38.4606 44.4907 38.9191 44.7496L48.5527 50.1941C49.0601 50.4804 49.4494 50.9374 49.6514 51.4838C49.8535 52.0301 49.8551 52.6305 49.6562 53.178L47.8439 58.1571C47.6207 58.7704 47.1629 59.27 46.5714 59.5458C45.9798 59.8217 45.3029 59.8512 44.6896 59.628L40.0643 57.9445C23.4596 51.9009 14.899 33.5426 20.9426 16.9379L22.626 12.3126Z" fill="white"/>
</svg>
